<svg width="250" height="60" viewBox="0 0 250 60" fill="none" xmlns="http://www.w3.org/2000/svg">
<path d="M91.35 43V17.215H81.18V11.5H108.45V17.215H98.28V43H91.35ZM112.512 24.28H136.092V29.725H112.512V24.28ZM112.512 11.5H136.092V17.125H112.512V11.5ZM112.512 43H136.092V37.375H112.512V43ZM145.582 43H138.472L152.512 11.5H159.397L173.482 43H166.237L155.932 18.385L145.582 43ZM183.504 43H176.979V11.5H182.694L194.664 31.39L206.409 11.5H212.169L212.214 43H205.689L205.644 23.695L196.104 39.58H192.999L183.504 24.01V43ZM230.173 43.495C228.913 43.495 227.668 43.405 226.438 43.225C225.238 43.045 224.083 42.805 222.973 42.505C221.863 42.175 220.828 41.785 219.868 41.335C218.938 40.885 218.128 40.39 217.438 39.85L219.778 34.585C221.098 35.545 222.688 36.34 224.548 36.97C226.408 37.6 228.283 37.915 230.173 37.915C232.423 37.915 234.028 37.585 234.988 36.925C235.978 36.235 236.473 35.38 236.473 34.36C236.473 33.58 236.203 32.965 235.663 32.515C235.153 32.035 234.463 31.63 233.593 31.3C232.723 30.97 231.733 30.685 230.623 30.445C229.543 30.175 228.418 29.905 227.248 29.635C226.108 29.335 224.983 28.975 223.873 28.555C222.793 28.135 221.818 27.595 220.948 26.935C220.078 26.245 219.373 25.405 218.833 24.415C218.323 23.395 218.068 22.15 218.068 20.68C218.068 19.36 218.338 18.115 218.878 16.945C219.418 15.775 220.228 14.755 221.308 13.885C222.388 12.985 223.753 12.28 225.403 11.77C227.053 11.26 228.988 11.005 231.208 11.005C233.188 11.005 235.123 11.245 237.013 11.725C238.903 12.175 240.583 12.85 242.053 13.75L239.848 19.06C238.408 18.22 236.938 17.605 235.438 17.215C233.968 16.795 232.543 16.585 231.163 16.585C228.943 16.585 227.353 16.96 226.393 17.71C225.433 18.43 224.953 19.315 224.953 20.365C224.953 21.115 225.208 21.73 225.718 22.21C226.258 22.66 226.963 23.05 227.833 23.38C228.703 23.71 229.678 23.995 230.758 24.235C231.868 24.475 232.993 24.745 234.133 25.045C235.303 25.315 236.428 25.66 237.508 26.08C238.618 26.5 239.608 27.04 240.478 27.7C241.348 28.36 242.038 29.2 242.548 30.22C243.088 31.21 243.358 32.425 243.358 33.865C243.358 35.155 243.088 36.385 242.548 37.555C242.008 38.725 241.183 39.76 240.073 40.66C238.993 41.53 237.628 42.22 235.978 42.73C234.328 43.24 232.393 43.495 230.173 43.495Z" fill="#67D9EE"/>
<path d="M63 26C63 35.3888 55.3888 43 46 43C36.6112 43 29 35.3888 29 26C29 16.6112 36.6112 9 46 9C55.3888 9 63 16.6112 63 26Z" stroke="#67D9EE" stroke-width="2"/>
<path d="M9.97063 18.5144C9.81977 17.9832 10.1282 17.4302 10.6594 17.2793L40.4804 8.81105C41.0117 8.66018 41.5646 8.96857 41.7155 9.49985C41.8664 10.0311 41.558 10.5841 41.0267 10.735L11.2058 19.2032C10.6745 19.3541 10.1215 19.0457 9.97063 18.5144Z" fill="#67D9EE"/>
<rect x="17" y="50.7181" width="33" height="2" rx="1" transform="rotate(-15.853 17 50.7181)" fill="#67D9EE"/>
<rect x="4" y="43.8986" width="30" height="2" rx="1" transform="rotate(-15.853 4 43.8986)" fill="#67D9EE"/>
<rect y="31.8986" width="30" height="2" rx="1" transform="rotate(-15.853 0 31.8986)" fill="#67D9EE"/>
<path d="M52 10L56.7553 13.4549L54.9389 19.0451H49.0611L47.2447 13.4549L52 10Z" fill="#67D9EE"/>
<path d="M42.0015 32.9193L44.9578 37.9996L41.0397 42.3811L35.6618 40.0087L36.2563 34.161L42.0015 32.9193Z" fill="#67D9EE"/>
<path d="M58 25L62.7553 28.4549L60.9389 34.0451H55.0611L53.2447 28.4549L58 25Z" fill="#67D9EE"/>
<path d="M32.4881 16.2039L38.2793 17.209L39.113 23.0275L33.837 25.6183L29.7425 21.4012L32.4881 16.2039Z" fill="#67D9EE"/>
<path d="M43.3202 22.5172L49.1682 23.1084L50.4131 28.8529L45.3345 31.812L40.9508 27.8963L43.3202 22.5172Z" fill="#67D9EE"/>
</svg>
